<svg xmlns="http://www.w3.org/2000/svg" width="24" height="24" viewBox="0 0 24 24">
    <g fill="none" fill-rule="evenodd">
        <g fill="#FFF">
            <g>
                <g>
                    <path d="M16.571 14.889h3.143l.786-3.796h-3.929V9.574c0-1.518.788-2.278 2.358-2.278H20.5V3.5h-3.143c-2.887 0-4.714 2.187-4.714 5.315v2.278H9.5v3.796h3.143V24H1.5C.672 24 0 23.328 0 22.5v-21C0 .672.672 0 1.5 0h21c.828 0 1.5.672 1.5 1.5v21c0 .828-.672 1.5-1.5 1.5h-5.929v-9.111z" transform="translate(-921 -2744) translate(0 2294) translate(921 450)"/>
                </g>
            </g>
        </g>
    </g>
</svg>
