<svg xmlns="http://www.w3.org/2000/svg" width="24" height="24" viewBox="0 0 24 24">
    <g fill="none" fill-rule="evenodd">
        <g fill="#FFF">
            <g>
                <g>
                    <g>
                        <path d="M17.073 9h6.16c.255.957.392 1.963.392 3s-.137 2.043-.392 3h-6.16c.241-2.018.231-4.066 0-6zm-8.391 7.5c.5 2.516 1.555 5.274 3.287 7.125h.062c1.735-1.854 2.787-4.614 3.287-7.125H8.682zm8.162-9h5.878c-1.497-3.561-4.716-6.22-8.615-6.934 1.417 2.021 2.289 4.516 2.737 6.934zM15.562 9H8.438c-.25 1.965-.25 4.033 0 6h7.124c.25-1.965.25-4.033 0-6zm-8.406 7.5H1.278c1.497 3.561 4.716 6.22 8.615 6.934-1.418-2.022-2.289-4.516-2.737-6.934zm9.688 0c-.449 2.419-1.32 4.913-2.737 6.934 3.899-.714 7.118-3.373 8.615-6.934h-5.878zm-1.526-9c-.5-2.516-1.555-5.274-3.287-7.125h-.062C10.234 2.23 9.182 4.99 8.682 7.5h6.636zM.767 9c-.255.957-.392 1.963-.392 3s.137 2.043.392 3h6.16c-.231-1.934-.241-3.982 0-6H.767zm6.389-1.5c.449-2.419 1.32-4.913 2.737-6.934C5.994 1.28 2.775 3.939 1.278 7.5h5.878z" transform="translate(-975 -2744) translate(0 2294) translate(921 450) translate(54)"/>
                    </g>
                </g>
            </g>
        </g>
    </g>
</svg>
