<svg xmlns="http://www.w3.org/2000/svg" width="14" height="18" viewBox="0 0 14 18">
    <g fill="none" fill-rule="evenodd" opacity=".6">
        <g fill="#FFF" fill-rule="nonzero">
            <g>
                <g>
                    <path d="M7 0C3.14 0 0 3.075 0 6.855c0 1.496.482 2.918 1.396 4.11l5.173 6.822c.012.017.032.023.047.038.258.271.631.203.815-.038 1.49-1.946 4.22-5.58 5.27-6.952v-.002l.006-.008C13.553 9.661 14 8.289 14 6.855 14 3.075 10.86 0 7 0zm0 10c-2.201 0-4-1.574-4-3.5S4.799 3 7 3s4 1.574 4 3.5S9.201 10 7 10z" transform="translate(-320 -2611) translate(0 2294) translate(320 317)"/>
                </g>
            </g>
        </g>
    </g>
</svg>
