<?xml version="1.0" encoding="UTF-8"?>
<svg width="82px" height="70px" viewBox="0 0 82 70" version="1.1" xmlns="http://www.w3.org/2000/svg" xmlns:xlink="http://www.w3.org/1999/xlink">
    <title>62951E1D-4FD9-40E6-815D-1493324DE9C2</title>
    <g id="1차" stroke="none" stroke-width="1" fill="none" fill-rule="evenodd">
        <g id="PC_Home" transform="translate(-534.000000, -972.000000)" fill="#000000" fill-rule="nonzero">
            <g id="Video-Works/SR" transform="translate(390.000000, 892.000000)">
                <g id="icon/SR" transform="translate(144.000000, 80.000000)">
                    <path d="M72.390625,0 L9.609375,0 C4.31045524,0 0,4.28178259 0,9.54545455 L0,47.7272727 C0,52.9909447 4.31045524,57.2727273 9.609375,57.2727273 L37.796875,57.2727273 L37.796875,63.6363636 L21.140625,63.6363636 L21.140625,70 L60.859375,70 L60.859375,63.6363636 L44.203125,63.6363636 L44.203125,57.2727273 L72.390625,57.2727273 C77.6895448,57.2727273 82,52.9909447 82,47.7272727 L82,9.54545455 C82,4.28178259 77.6895448,0 72.390625,0 Z M75.59375,47.7272727 C75.59375,49.4816229 74.1567231,50.9090909 72.390625,50.9090909 L9.609375,50.9090909 C7.84327694,50.9090909 6.40625,49.4816229 6.40625,47.7272727 L6.40625,9.54545455 C6.40625,7.79110436 7.84327694,6.36363636 9.609375,6.36363636 L72.390625,6.36363636 C74.1567231,6.36363636 75.59375,7.79110436 75.59375,9.54545455 L75.59375,47.7272727 Z M31.390625,15.9283559 L37.796875,15.9283559 L37.796875,41.3829013 L31.390625,41.3829013 L31.390625,31.8374468 L24.984375,31.8374468 L24.984375,41.3829013 L18.578125,41.3829013 L18.578125,15.9283559 L24.984375,15.9283559 L24.984375,25.4738104 L31.390625,25.4738104 L31.390625,15.9283559 Z M53.8125,15.9283559 L44.203125,15.9283559 L44.203125,41.3829013 L53.8125,41.3829013 C59.1114198,41.3829013 63.421875,37.1011186 63.421875,31.8374468 L63.421875,25.4738104 C63.421875,20.2107599 59.1114198,15.9283559 53.8125,15.9283559 Z M57.015625,31.8374468 C57.015625,33.591797 55.5785981,35.019265 53.8125,35.019265 L50.609375,35.019265 L50.609375,22.2919922 L53.8125,22.2919922 C55.5785981,22.2919922 57.015625,23.7194602 57.015625,25.4738104 L57.015625,31.8374468 Z" id="Shape"></path>
                </g>
            </g>
        </g>
    </g>
</svg>