<svg xmlns="http://www.w3.org/2000/svg" width="99" height="70" viewBox="0 0 99 70">
    <g fill="none" fill-rule="evenodd">
        <g fill="#000" fill-rule="nonzero">
            <g>
                <g>
                    <path d="M89.385 13.26s-5.508-4.79-10.15-2.118c-3.576 2.076-26.284 13.584-36.415 18.71l-14.345-8.284c1.558-2.787 1.818-6.011.98-9.12-1.06-3.927-3.866-7.65-8.007-10.043-7.444-4.31-16.393-2.67-19.964 3.661C-.108 8.861-.368 12.108.466 15.24c1.06 3.927 3.866 7.654 8.007 10.058 1.83 1.044 3.736 1.736 5.63 2.091v.004c.016.004.031.004.046.012.15.023.322.058.486.077 11.812 1.775 17.851 5.142 20.783 7.515-2.932 2.381-8.971 5.74-20.783 7.519-.164.02-.336.05-.486.073-.015.008-.03.008-.046.016-1.89.355-3.796 1.047-5.63 2.095C4.332 47.104 1.53 50.827.466 54.758c-.838 3.124-.574 6.371 1.018 9.181 3.575 6.32 12.52 7.968 19.968 3.657 4.141-2.4 6.943-6.123 8.007-10.058.838-3.104.574-6.32-.98-9.112l14.345-8.28c10.127 5.122 32.84 16.642 36.414 18.706 4.643 2.671 10.15-2.114 10.15-2.114l-37.654-21.74 37.65-21.738zm-67.022 4.86c-1.63 2.868-6.392 3.336-10.4 1.02-2.353-1.353-4.125-3.51-4.73-5.752-.264-1.001-.436-2.466.337-3.808 1.623-2.864 6.384-3.332 10.391-1.02 2.392 1.372 4.111 3.471 4.723 5.752.276.99.433 2.462-.321 3.807zm.321 37.558c-.612 2.285-2.33 4.38-4.723 5.756-4.007 2.32-8.768 1.848-10.391-1.024-.77-1.345-.597-2.806-.337-3.796.605-2.25 2.377-4.407 4.73-5.768 4.008-2.311 8.77-1.844 10.4 1.029.754 1.353.597 2.814.321 3.803z" transform="translate(-911 -972) translate(775 892) translate(136 80)"/>
                    <path d="M60.553 33.056H70.16499999999999V36.945H60.553zM74.01 33.056H83.622V36.945H74.01zM89.388 33.056H99V36.945H89.388z" transform="translate(-911 -972) translate(775 892) translate(136 80)"/>
                </g>
            </g>
        </g>
    </g>
</svg>
