<svg xmlns="http://www.w3.org/2000/svg" width="115" height="100" viewBox="0 0 115 100">
    <g fill="none" fill-rule="evenodd">
        <g fill-rule="nonzero">
            <g>
                <g>
                    <path fill="#39DFDB" d="M107.616 58.685C112.166 63.051 115 69.195 115 76c0 13.256-10.747 24-24 24-13.256 0-24-10.744-24-24 0-.941.053-1.867.16-2.779C68.536 61.277 78.685 52 91 52c6.448 0 12.304 2.541 16.616 6.685z" transform="translate(-903 -562) translate(320 458) translate(583 104)"/>
                    <path fill="#43B5FF" d="M110 50.381c0 1.906-.226 3.758-.655 5.534-4.958-4.23-11.208-6.537-17.777-6.537-13.946 0-25.663 10.422-27.256 24.239-.016.127-.03.255-.043.383H18.912C8.466 74 0 65.539 0 55.105c0-8.123 5.13-15.048 12.332-17.718-.027-.388-.043-.782-.043-1.176 0-9.691 7.862-17.545 17.561-17.545 3.107 0 6.024.809 8.557 2.225C41.122 8.93 51.828 0 64.621 0c14.847 0 26.883 12.025 26.883 26.858 0 .154-.006.309-.008.466C102.083 29.666 110 39.099 110 50.38z" transform="translate(-903 -562) translate(320 458) translate(583 104)"/>
                    <path fill="#FFF" d="M93.004 94L93.004 65.654 100.165 72.796 103 69.969 91 58 79 69.969 81.835 72.796 88.995 65.654 88.995 94z" transform="translate(-903 -562) translate(320 458) translate(583 104)"/>
                </g>
            </g>
        </g>
    </g>
</svg>
